<svg xmlns="http://www.w3.org/2000/svg" xmlns:xlink="http://www.w3.org/1999/xlink" preserveAspectRatio="xMidYMid meet"
    version="1.0" viewBox="80.3 103.9 263.5 217.4" zoomAndPan="magnify" style="fill: rgb(0, 0, 0);"
    original_string_length="10078">
    <g>
        <g>
            <g>
                <g>
                    <path
                        d="M218.046,295.605c6.775,2.408,14.097,3.645,21.718,3.428c33.014-0.939,59.016-28.462,58.078-61.476 c-0.939-33.016-28.464-59.019-61.477-58.079c-6.305,0.179-12.35,1.333-18.003,3.306c14.113,13.742,23.115,32.765,23.719,54.013 C242.735,259.814,233.418,280.798,218.046,295.605z"
                        style="fill: none;" />
                </g>
                <g>
                    <path
                        d="M223.354,237.329c-0.519-18.263-9.184-34.371-22.404-44.968c-14.273,11.314-23.22,28.987-22.662,48.595 c0.52,18.262,9.183,34.369,22.403,44.967C214.965,274.608,223.911,256.937,223.354,237.329z"
                        style="fill: none;" />
                </g>
                <g>
                    <path
                        d="M183.595,182.679c-6.776-2.409-14.097-3.646-21.719-3.429c-33.013,0.939-59.015,28.464-58.077,61.478 c0.938,33.016,28.464,59.017,61.476,58.077c6.306-0.18,12.351-1.333,18.005-3.305c-14.113-13.744-23.113-32.765-23.718-54.012 C158.907,218.47,168.225,197.487,183.595,182.679z"
                        style="fill: none;" />
                </g>
                <g>
                    <g id="__id168_szithb6tui">
                        <path
                            d="M235.833,160.749c-12.598,0.358-24.408,3.681-34.81,9.255c-6.392,3.427-12.258,7.691-17.429,12.675 c-15.37,14.809-24.688,35.791-24.033,58.81c0.604,21.247,9.604,40.268,23.718,54.012c6.369-2.221,12.241-5.479,17.411-9.577 c-13.221-10.598-21.884-26.705-22.403-44.967c-0.558-19.607,8.389-37.28,22.662-48.595l17.413-9.577 c5.653-1.973,11.698-3.127,18.003-3.306c33.013-0.939,60.537,25.063,61.477,58.079c0.938,33.014-25.064,60.536-58.078,61.476 c-7.621,0.217-14.942-1.02-21.718-3.428c-5.171,4.98-11.037,9.247-17.43,12.673c11.77,6.399,25.323,9.891,39.681,9.481 c43.355-1.232,77.505-37.379,76.272-80.735C315.337,193.666,279.189,159.518,235.833,160.749z"
                            style="fill: rgb(255, 255, 255);" />
                    </g>
                    <g id="__id169_szithb6tui">
                        <path
                            d="M238.032,321.292c-0.001,0-0.002,0-0.003,0c-13.612,0-27.127-3.438-39.085-9.938 c-1.13-0.614-1.832-1.8-1.828-3.086s0.713-2.467,1.847-3.074c6.107-3.273,11.711-7.347,16.655-12.108 c0.957-0.921,2.351-1.221,3.601-0.777c6.573,2.336,13.439,3.428,20.446,3.227c31.031-0.883,55.561-26.847,54.679-57.877 c-0.873-30.675-25.579-54.703-56.245-54.703c-0.542,0-1.088,0.008-1.633,0.023c-5.704,0.161-11.313,1.176-16.677,3.017 l-16.891,9.29c-13.927,11.152-21.618,27.746-21.111,45.572c0.471,16.536,8.159,31.967,21.094,42.336 c0.832,0.666,1.314,1.675,1.311,2.74s-0.491,2.071-1.326,2.733c-5.548,4.397-11.75,7.809-18.433,10.139 c-1.252,0.439-2.644,0.128-3.594-0.797c-15.367-14.965-24.165-35.002-24.774-56.42c-0.655-23.038,8.495-45.428,25.104-61.43 c5.399-5.203,11.524-9.658,18.203-13.239c11.291-6.05,23.525-9.304,36.364-9.669c0.793-0.022,1.583-0.033,2.371-0.033 c21.421,0,41.697,8.228,57.093,23.167c15.427,14.97,24.259,35.05,24.87,56.541c1.285,45.217-34.455,83.048-79.671,84.334 C239.605,321.281,238.818,321.292,238.032,321.292z M207.992,307.995c9.443,4.133,19.709,6.297,30.037,6.297 c0.001,0,0.002,0,0.003,0c0.72,0,1.44-0.01,2.165-0.031c41.358-1.175,74.049-35.779,72.874-77.137 c-1.183-41.604-35.271-74.086-77.138-72.876c-11.744,0.334-22.933,3.309-33.256,8.841c-6.113,3.277-11.716,7.352-16.653,12.11 c-15.192,14.638-23.563,35.117-22.963,56.189c0.537,18.857,8.013,36.544,21.11,50.05c3.842-1.509,7.491-3.429,10.904-5.736 c-12.466-11.532-19.8-27.563-20.286-44.646c-0.573-20.151,8.169-38.899,23.986-51.438c0.153-0.121,0.316-0.229,0.488-0.323 l17.413-9.577c0.171-0.095,0.349-0.174,0.533-0.238c6.125-2.138,12.538-3.314,19.057-3.5 c17.211-0.461,33.568,5.899,45.885,17.851c11.903,11.55,18.718,27.044,19.189,43.628c0.991,34.889-26.588,64.081-61.477,65.074 c-7.159,0.2-14.179-0.79-20.95-2.942C215.523,302.688,211.87,305.499,207.992,307.995z"
                            style="fill: rgb(133, 161, 96);" />
                    </g>
                </g>
                <g>
                    <g id="__id170_szithb6tui">
                        <path
                            d="M218.362,182.784c-6.37,2.22-12.242,5.479-17.413,9.577c13.221,10.597,21.886,26.705,22.404,44.968 c0.558,19.607-8.389,37.279-22.663,48.594c-5.17,4.098-11.042,7.356-17.411,9.577c-5.654,1.972-11.699,3.125-18.005,3.305 c-33.012,0.939-60.537-25.062-61.476-58.077c-0.938-33.014,25.064-60.538,58.077-61.478c7.622-0.217,14.942,1.02,21.719,3.429 c5.171-4.983,11.037-9.248,17.429-12.675c-11.77-6.399-25.323-9.89-39.68-9.481c-43.356,1.233-77.502,37.379-76.271,80.738 c1.232,43.357,37.378,77.504,80.734,76.273c12.598-0.359,24.408-3.682,34.809-9.256c6.393-3.426,12.259-7.692,17.43-12.673 c15.372-14.808,24.689-35.791,24.035-58.809C241.478,215.549,232.476,196.526,218.362,182.784z"
                            style="fill: rgb(255, 255, 255);" />
                    </g>
                    <g id="__id171_szithb6tui">
                        <path
                            d="M163.538,321.066c-21.421,0-41.697-8.228-57.093-23.167c-15.426-14.969-24.259-35.048-24.87-56.539 c-1.284-45.217,34.456-83.05,79.669-84.337c0.791-0.022,1.577-0.033,2.363-0.033c13.614,0,27.13,3.437,39.088,9.938 c1.13,0.614,1.832,1.8,1.828,3.086s-0.713,2.466-1.846,3.074c-6.113,3.277-11.716,7.352-16.654,12.11 c-0.956,0.921-2.35,1.221-3.601,0.777c-6.573-2.337-13.444-3.424-20.447-3.228c-31.031,0.883-55.56,26.848-54.678,57.879 c0.872,30.676,25.577,54.703,56.244,54.701c0.542,0,1.088-0.008,1.633-0.023c5.803-0.165,11.506-1.212,16.952-3.11 c5.941-2.072,11.456-5.104,16.39-9.016c14.07-11.152,21.848-27.828,21.338-45.751c-0.47-16.537-8.158-31.968-21.095-42.336 c-0.832-0.667-1.314-1.676-1.311-2.741s0.491-2.071,1.326-2.733c5.551-4.399,11.753-7.811,18.436-10.139 c1.252-0.438,2.644-0.127,3.594,0.797c15.368,14.965,24.167,35.002,24.775,56.421c0.655,23.039-8.496,45.429-25.105,61.429 c-5.406,5.207-11.531,9.661-18.205,13.237c-11.288,6.05-23.522,9.303-36.362,9.67 C165.114,321.056,164.326,321.066,163.538,321.066z M163.607,163.99c-0.719,0-1.44,0.01-2.164,0.031 c-41.356,1.176-74.046,35.781-72.872,77.14c1.162,40.881,34.091,72.904,74.966,72.905c0.722,0,1.444-0.01,2.171-0.031 c11.744-0.335,22.933-3.31,33.254-8.842c6.107-3.273,11.711-7.347,16.655-12.108c15.193-14.636,23.564-35.115,22.965-56.188 c-0.536-18.858-8.013-36.546-21.111-50.051c-3.842,1.508-7.492,3.428-10.906,5.736c12.467,11.532,19.802,27.564,20.287,44.647 c0.573,20.151-8.17,38.898-23.987,51.437c-5.549,4.397-11.75,7.809-18.433,10.139c-6.124,2.136-12.536,3.313-19.058,3.499 c-17.231,0.463-33.568-5.897-45.885-17.849c-11.903-11.551-18.718-27.044-19.189-43.628 c-0.991-34.891,26.587-64.083,61.476-65.076c7.162-0.2,14.18,0.791,20.95,2.943c3.388-3.098,7.042-5.909,10.922-8.407 C184.205,166.154,173.936,163.99,163.607,163.99z"
                            style="fill: rgb(133, 161, 96);" />
                    </g>
                </g>
            </g>
            <g>
                <g id="__id172_szithb6tui">
                    <path
                        d="M182.511,107.408c-10.561,0-19.128,7.502-19.128,16.757c0-9.255-8.558-16.757-19.123-16.757 c-8.852,0-18.161,7.401-18.7,16.226c-0.717,11.788,7.896,22.818,15.883,30.493c5.728,5.502,12.187,10.611,18.771,15.051 c0.261,0.179,2.778,2.106,3.17,1.89c15.682-8.784,38.254-26.846,38.254-46.902C201.637,114.91,193.073,107.408,182.511,107.408z"
                        style="fill: rgb(255, 255, 255);" />
                </g>
                <g id="__id173_szithb6tui">
                    <path
                        d="M163.303,174.584C163.303,174.584,163.302,174.584,163.303,174.584c-1.41,0-2.61-0.715-4.938-2.423 l-0.156-0.114c-7.025-4.736-13.498-9.928-19.19-15.396c-11.894-11.43-17.597-22.609-16.952-33.23 c0.635-10.395,11.006-19.513,22.194-19.513c8.038,0,15.109,3.772,19.124,9.444c4.015-5.672,11.088-9.444,19.127-9.444 c12.476,0,22.626,9.087,22.626,20.257c0,20.294-20.685,39.112-40.043,49.956C164.571,174.414,163.902,174.584,163.303,174.584z M144.26,110.908c-7.41,0-14.8,6.288-15.207,12.939c-0.642,10.558,7.702,20.921,14.814,27.756 c5.328,5.117,11.657,10.191,18.302,14.672c0.072,0.05,0.183,0.13,0.337,0.242c0.309,0.227,0.57,0.414,0.789,0.568 c16.425-9.583,34.841-26.181,34.841-42.921c0-7.31-7.01-13.257-15.626-13.257c-8.617,0-15.628,5.947-15.628,13.257 c0,1.933-1.567,3.5-3.5,3.5s-3.5-1.567-3.5-3.5C159.883,116.855,152.875,110.908,144.26,110.908z"
                        style="fill: rgb(133, 161, 96);" />
                </g>
            </g>
            <g>
                <g id="__id174_szithb6tui">
                    <path d="M173.868,153.632c-2.468,2.271-2.311,2.087-5.591,4.175" style="fill: rgb(255, 255, 255);" />
                </g>
                <g id="__id175_szithb6tui">
                    <path
                        d="M168.28,160.307c-0.826,0-1.635-0.409-2.111-1.157c-0.742-1.165-0.398-2.71,0.767-3.452l0.94-0.597 c2.26-1.431,2.26-1.431,4.3-3.309c1.016-0.934,2.597-0.869,3.533,0.147c0.935,1.016,0.869,2.598-0.147,3.532 c-2.316,2.131-2.557,2.299-5.01,3.854l-0.931,0.591C169.204,160.181,168.739,160.307,168.28,160.307z"
                        style="fill: rgb(133, 161, 96);" />
                </g>
            </g>
            <g>
                <g id="__id176_szithb6tui">
                    <path d="M187.233,136.935c0,0,0.127,4.644-7.271,11.453" style="fill: rgb(255, 255, 255);" />
                </g>
                <g id="__id177_szithb6tui">
                    <path
                        d="M179.963,150.888c-0.674,0-1.347-0.271-1.84-0.807c-0.935-1.016-0.87-2.598,0.146-3.532 c6.249-5.753,6.463-9.587,6.464-9.625c-0.038-1.38,1.051-2.49,2.431-2.527c1.38-0.025,2.53,1.09,2.567,2.47 c0.016,0.592-0.073,5.993-8.076,13.36C181.176,150.669,180.569,150.888,179.963,150.888z"
                        style="fill: rgb(133, 161, 96);" />
                </g>
            </g>
            <g>
                <g>
                    <g id="__id178_szithb6tui">
                        <path d="M316.178 141.381L298.568 161.805" style="fill: rgb(255, 255, 255);" />
                    </g>
                    <g id="__id179_szithb6tui">
                        <path
                            d="M298.567,165.305c-0.81,0-1.623-0.279-2.284-0.85c-1.464-1.262-1.627-3.472-0.365-4.936l17.609-20.424 c1.263-1.464,3.472-1.628,4.937-0.365c1.464,1.262,1.627,3.472,0.365,4.936l-17.609,20.424 C300.527,164.893,299.55,165.305,298.567,165.305z"
                            style="fill: rgb(133, 161, 96);" />
                    </g>
                </g>
                <g>
                    <g id="__id180_szithb6tui">
                        <path d="M285.668 121.601L287.918 152.6" style="fill: rgb(255, 255, 255);" />
                    </g>
                    <g id="__id181_szithb6tui">
                        <path
                            d="M287.915,156.1c-1.818,0-3.354-1.405-3.487-3.247l-2.25-30.999c-0.14-1.928,1.31-3.604,3.237-3.744 c1.928-0.129,3.604,1.311,3.744,3.238l2.25,30.999c0.14,1.928-1.31,3.604-3.237,3.744C288.085,156.097,288,156.1,287.915,156.1z"
                            style="fill: rgb(133, 161, 96);" />
                    </g>
                </g>
                <g>
                    <g id="__id182_szithb6tui">
                        <path d="M340.159 168.717L309.165 170.967" style="fill: rgb(255, 255, 255);" />
                    </g>
                    <g id="__id183_szithb6tui">
                        <path
                            d="M309.161,174.467c-1.817,0-3.353-1.405-3.487-3.247c-0.14-1.928,1.31-3.604,3.237-3.744l30.994-2.25 c1.911-0.139,3.604,1.31,3.744,3.238c0.14,1.928-1.31,3.604-3.237,3.744l-30.994,2.25 C309.333,174.464,309.247,174.467,309.161,174.467z"
                            style="fill: rgb(133, 161, 96);" />
                    </g>
                </g>
            </g>
        </g>
        <g>
            <path
                d="M162.007,310.815c-11.171,0-20.727-3.005-27.757-6.222c-1.255-0.575-1.807-2.059-1.233-3.313 c0.575-1.257,2.057-1.809,3.314-1.233c10.363,4.743,26.658,8.991,45.423,2.291c1.299-0.464,2.73,0.214,3.195,1.514 c0.464,1.301-0.214,2.731-1.514,3.195C175.852,309.754,168.644,310.815,162.007,310.815z"
                style="fill: rgb(133, 161, 96);" />
        </g>
        <g>
            <path
                d="M128.987,301.555c-0.427,0-0.859-0.109-1.254-0.339c-6.738-3.918-10.615-7.554-10.777-7.706 c-1.004-0.948-1.048-2.531-0.1-3.534c0.948-1.003,2.528-1.048,3.532-0.103l0,0c0.036,0.034,3.658,3.415,9.859,7.021 c1.193,0.694,1.599,2.225,0.904,3.418C130.687,301.109,129.849,301.555,128.987,301.555z"
                style="fill: rgb(133, 161, 96);" />
        </g>
    </g>
</svg>