<svg viewBox="5.1 26.6 89.8 46.8" style="fill: rgb(133, 161, 96);">
    <g id="__id187_szithb6tui">
        <path
            d="M91.521,66.621h-.748c-.527-13.211-11.434-23.796-24.771-23.796h-10.812v-2.786c3.914-1.169,6.399-3.604,6.399-6.339,0-3.97-5.091-7.081-11.589-7.081s-11.589,3.11-11.589,7.081c0,2.735,2.485,5.17,6.399,6.339v2.786h-10.812c-13.338,0-24.244,10.586-24.771,23.796h-.748c-1.863,0-3.38,1.516-3.38,3.379s1.517,3.38,3.38,3.38H91.521c1.863,0,3.38-1.516,3.38-3.38s-1.517-3.379-3.38-3.379Zm-45.472-28.317c-3.372-.828-5.638-2.678-5.638-4.604,0-2.754,4.392-5.081,9.589-5.081s9.589,2.327,9.589,5.081c0,1.926-2.266,3.775-5.638,4.604-.447,.11-.762,.511-.762,.971v3.55h-6.379v-3.55c0-.46-.314-.861-.762-.971Zm-12.05,6.521h11.79c.008,0,.014,.004,.022,.004h8.379c.008,0,.014-.004,.022-.004h11.79c12.235,0,22.25,9.689,22.775,21.796H11.224c.525-12.107,10.54-21.796,22.775-21.796Zm57.521,26.556H8.479c-.761,0-1.38-.619-1.38-1.38s.619-1.379,1.38-1.379H91.521c.761,0,1.38,.619,1.38,1.379s-.619,1.38-1.38,1.38Z"
            style="fill: inherit;" />
        <path
            d="M33.999,46.825c-4.81,0-9.503,1.687-13.217,4.75-.426,.352-.486,.982-.135,1.408,.198,.24,.483,.364,.772,.364,.224,0,.449-.075,.636-.229,3.355-2.769,7.597-4.293,11.943-4.293,.553,0,1-.448,1-1s-.447-1-1-1Z"
            style="fill: inherit;" />
        <path
            d="M18.044,54.294c-.837,1.002-1.583,2.085-2.215,3.218-.27,.482-.097,1.091,.386,1.36,.154,.086,.321,.127,.486,.127,.351,0,.691-.185,.874-.513,.571-1.024,1.246-2.003,2.004-2.909,.354-.424,.298-1.055-.126-1.409-.426-.356-1.055-.297-1.409,.125Z"
            style="fill: inherit;" />
    </g>
</svg>